<?xml version="1.0" encoding="UTF-8"?>
<svg id="Calque_1" xmlns="http://www.w3.org/2000/svg" xmlns:xlink="http://www.w3.org/1999/xlink" version="1.1" viewBox="0 0 16 16">
  <!-- Generator: Adobe Illustrator 30.3.0, SVG Export Plug-In . SVG Version: 2.1.3 Build 182)  -->
  <defs>
    <style>
      .st0 {
        fill: #09652f;
      }

      .st1 {
        fill: #ee761e;
      }

      .st2 {
        fill: url(#Dégradé_sans_nom_3);
      }

      .st3 {
        fill: #934506;
      }

      .st4 {
        fill: #911717;
      }

      .st5 {
        fill: #2c7325;
      }

      .st6 {
        fill: #966c05;
      }

      .st7 {
        fill: #e93135;
      }

      .st8 {
        fill: #969698;
      }

      .st9 {
        fill: #85891f;
      }

      .st10 {
        fill: #a4a5a7;
      }

      .st11 {
        fill: #f7ae14;
      }

      .st12 {
        fill: #59b842;
      }

      .st13 {
        fill: #e9e9e9;
      }

      .st14 {
        fill: #e2e035;
      }

      .st15 {
        fill: #648018;
      }

      .st16 {
        fill: #aacc31;
      }

      .st17 {
        fill: #9f9fa1;
      }

      .st18 {
        fill: #024f23;
      }
    </style>
    <linearGradient id="Dégradé_sans_nom_3" data-name="Dégradé sans nom 3" x1="2.5" y1="9" x2="12.4" y2="9" gradientTransform="translate(0 16.9) scale(1 -1)" gradientUnits="userSpaceOnUse">
      <stop offset="0" stop-color="#e1e759"/>
      <stop offset="1" stop-color="#38b849"/>
    </linearGradient>
  </defs>
  <g id="Maison">
    <polygon class="st13" points="12.4 4.4 12.1 4.8 9.5 2.9 4 7.2 5.4 7.2 5.6 13.2 11 13.3 11 13.8 5 13.7 4.8 7.7 2.4 7.7 9.5 2.2 12.4 4.4"/>
    <polygon class="st2" points="12.4 4.4 12.1 4.7 9.5 2.8 3.9 7.2 5.3 7.2 5.6 13.3 11 13.3 11 13.7 5 13.7 4.8 7.6 2.5 7.6 9.5 2.2 12.4 4.4"/>
    <polygon class="st8" points="12.1 4.8 11.3 4.8 9.1 3.2 9.5 2.9 12.1 4.8"/>
    <polygon class="st10" points="9.5 2.2 8.8 2.2 1.7 7.7 2.4 7.7 9.5 2.2"/>
    <polygon class="st8" points="1.7 7.7 2.4 7.7 4.8 7.7 4.1 7.7 1.7 7.7"/>
    <polygon class="st17" points="4.8 7.7 4.1 7.7 4.3 13.8 5 13.7 4.8 7.7"/>
    <polygon class="st8" points="4.3 13.8 10.3 13.8 11 13.8 5 13.7 4.3 13.8"/>
  </g>
  <g id="Cat._F">
    <polygon class="st3" points="5.7 11.5 6 11.5 6 12.1 12.7 12.2 12.5 12.2 5.8 12.2 5.7 11.5"/>
    <polygon class="st1" points="6 11.5 6 12.1 12.7 12.2 13.6 11.9 12.7 11.5 6 11.5"/>
  </g>
  <g id="Cat._G">
    <polygon class="st4" points="5.8 12.4 6 12.3 6.1 13 13.3 13 13.1 13.1 5.8 13 5.8 12.4"/>
    <polygon class="st7" points="6 12.3 6.1 13 13.3 13 14.3 12.7 13.3 12.4 6 12.3"/>
  </g>
  <g id="Cat._E">
    <polygon class="st6" points="5.7 10.7 5.9 10.6 6 11.2 12.1 11.3 11.9 11.4 5.7 11.3 5.7 10.7"/>
    <polygon class="st11" points="5.9 10.6 6 11.2 12.1 11.3 12.9 11 12.1 10.7 5.9 10.6"/>
  </g>
  <g id="Cat._D">
    <polygon class="st9" points="5.7 9.8 5.9 9.7 5.9 10.4 11.5 10.5 11.2 10.5 5.7 10.4 5.7 9.8"/>
    <polygon class="st14" points="5.9 9.7 5.9 10.4 11.5 10.5 12.2 10.1 11.5 9.8 5.9 9.7"/>
  </g>
  <g id="Cat._C">
    <polygon class="st15" points="5.8 8.9 5.6 8.9 5.7 9.6 10.6 9.6 10.9 9.6 5.9 9.5 5.8 8.9"/>
    <polygon class="st16" points="5.8 8.9 5.9 9.5 10.9 9.6 11.5 9.3 10.8 8.9 5.8 8.9"/>
  </g>
  <g id="Cat._B">
    <polygon class="st5" points="5.6 8.1 5.8 8 5.8 8.7 10.3 8.7 10 8.8 5.6 8.7 5.6 8.1"/>
    <polygon class="st12" points="5.8 8 5.8 8.7 10.3 8.7 10.8 8.4 10.2 8.1 5.8 8"/>
  </g>
  <g id="Cat._A">
    <polygon class="st18" points="5.6 7.2 5.7 7.2 5.8 7.8 9.6 7.9 9.4 7.9 5.6 7.9 5.6 7.2"/>
    <polygon class="st0" points="5.7 7.2 5.8 7.8 9.6 7.9 10.1 7.5 9.6 7.2 5.7 7.2"/>
  </g>
</svg>