<?xml version="1.0" encoding="UTF-8"?>
<svg id="Tracés" xmlns="http://www.w3.org/2000/svg" xmlns:xlink="http://www.w3.org/1999/xlink" viewBox="0 0 1000 1000">
  <defs>
    <style>
      .cls-1 {
        fill: #09652f;
      }

      .cls-2, .cls-3 {
        fill: #ee761e;
      }

      .cls-3 {
        stroke: #ee761e;
        stroke-miterlimit: 10;
      }

      .cls-4 {
        fill: #008e41;
      }

      .cls-5 {
        fill: #934506;
      }

      .cls-6 {
        fill: #911717;
      }

      .cls-7 {
        fill: #2c7325;
      }

      .cls-8 {
        fill: #966c05;
      }

      .cls-9 {
        fill: #e93135;
      }

      .cls-10 {
        fill: #969698;
      }

      .cls-11 {
        fill: #85891f;
      }

      .cls-12 {
        fill: #a4a5a7;
      }

      .cls-13 {
        fill: #f7ae14;
      }

      .cls-14 {
        fill: #59b842;
      }

      .cls-15 {
        fill: #e9e9e9;
      }

      .cls-16 {
        fill: #e2e035;
      }

      .cls-17 {
        fill: #648018;
      }

      .cls-18 {
        fill: url(#Dégradé_sans_nom_70);
      }

      .cls-19 {
        fill: #01903e;
      }

      .cls-20 {
        fill: #aacc31;
      }

      .cls-21 {
        fill: #9f9fa1;
      }

      .cls-22 {
        fill: #009140;
      }

      .cls-23 {
        fill: #024f23;
      }
    </style>
    <linearGradient id="Dégradé_sans_nom_70" data-name="Dégradé sans nom 70" x1="49.7" y1="488.75" x2="323.25" y2="488.75" gradientUnits="userSpaceOnUse">
      <stop offset="0" stop-color="#e1e759"/>
      <stop offset="1" stop-color="#38b849"/>
    </linearGradient>
  </defs>
  <g id="Maison">
    <polygon class="cls-15" points="324.18 388.87 313.87 399.43 243.36 346.72 89.84 466.22 128.26 466.44 134.23 634.46 284.32 635.38 284.77 649.4 118.84 648.4 112.43 480.33 47.43 479.95 242.73 328.06 324.18 388.87"/>
    <polygon class="cls-18" points="323.25 389.15 313.85 398.42 243.43 345.82 87.79 466.91 127.65 467.23 133.56 635.28 283.72 636.15 284.15 648.6 119.35 647.63 113.32 479.59 49.7 479.27 242.91 328.91 323.25 389.15"/>
    <polygon class="cls-10" points="313.87 399.43 294.25 401.17 232.65 355.06 243.36 346.72 313.87 399.43"/>
    <polygon class="cls-12" points="242.73 328.06 223.07 329.71 27.8 481.74 47.43 479.95 242.73 328.06"/>
    <polygon class="cls-10" points="27.8 481.74 47.43 479.95 112.43 480.33 92.94 482.11 27.8 481.74"/>
    <polygon class="cls-21" points="112.43 480.33 92.94 482.11 99.23 650.06 118.84 648.4 112.43 480.33"/>
    <polygon class="cls-10" points="99.23 650.06 265.67 651.05 284.77 649.4 118.84 648.4 99.23 650.06"/>
  </g>
  <g id="Cat._F" data-name="Cat. F">
    <polygon class="cls-5" points="138.89 587.4 145.44 585.82 146.44 603.44 332.13 605.56 325.53 607.18 139.69 605.13 138.89 587.4"/>
    <polygon class="cls-2" points="145.44 585.82 146.44 603.44 332.13 605.56 355.72 596.65 331.45 587.82 145.44 585.82"/>
  </g>
  <g id="Cat._G" data-name="Cat. G">
    <polygon class="cls-6" points="139.97 611.26 146.8 609.59 147.74 627.37 349.49 629.51 342.78 631.21 140.77 629.02 139.97 611.26"/>
    <polygon class="cls-9" points="146.8 609.59 147.74 627.37 349.49 629.51 375 620.66 348.84 611.85 146.8 609.59"/>
  </g>
  <g id="Cat._E" data-name="Cat. E">
    <polygon class="cls-8" points="137.81 563.46 144.02 561.88 145.12 579.61 315.28 581.54 308.55 583.18 138.62 581.36 137.81 563.46"/>
    <polygon class="cls-13" points="144.02 561.88 145.12 579.61 315.28 581.54 336.67 572.5 314.34 563.7 144.02 561.88"/>
  </g>
  <g id="Cat._D" data-name="Cat. D">
    <polygon class="cls-11" points="136.73 539.55 142.75 538 143.68 555.72 298.15 557.53 291.49 559.17 137.54 557.45 136.73 539.55"/>
    <polygon class="cls-16" points="142.75 538 143.68 555.72 298.15 557.53 317.6 548.57 297.31 539.79 142.75 538"/>
  </g>
  <g id="Cat._C" data-name="Cat. C">
    <polygon class="cls-17" points="141.28 514.24 135.65 515.61 136.46 533.69 274.31 535.14 281.03 533.46 142.26 532.03 141.28 514.24"/>
    <polygon class="cls-20" points="141.28 514.24 142.26 532.03 281.03 533.46 298.51 524.52 280.37 515.78 141.28 514.24"/>
  </g>
  <g id="Cat._B" data-name="Cat. B">
    <polygon class="cls-7" points="134.57 491.72 139.94 490.42 140.97 508.18 264.14 509.45 257.24 511.1 135.39 509.86 134.57 491.72"/>
    <polygon class="cls-14" points="139.94 490.42 140.97 508.18 264.14 509.45 279.39 500.4 263.28 491.79 139.94 490.42"/>
  </g>
  <g id="Cat._A" data-name="Cat. A">
    <polygon class="cls-23" points="133.48 467.77 138.55 466.57 139.57 484.25 247.03 485.53 240.17 487.16 134.31 485.95 133.48 467.77"/>
    <polygon class="cls-1" points="138.55 466.57 139.57 484.25 247.03 485.53 260.35 476.4 246.28 467.71 138.55 466.57"/>
  </g>
  <g id="PLACO">
    <path class="cls-14" d="M443.44,611.31h-33.17l-13.71,38.74h13.63l5.08-14.1h19.97c6.73,0,15.08-5.68,15.08-13.46,0,0,.48-11.19-6.88-11.19ZM435.05,626.16h-11.6l-6.85,6.06,3.76-11.04h15.01s1.46,1.23,1.46,2.02-1.78,2.97-1.78,2.97Z"/>
    <path class="cls-14" d="M458.74,611.31l-13.75,38.74h31.41s3.92-3.55,8.45-9.85h-22.88l10.41-28.9h-13.64Z"/>
    <path class="cls-14" d="M529.84,619.13s-1.19-7.82-4.04-7.82h-11.28s-2.55.34-5.52,4.32c-2.97,3.98-26.24,34.42-26.24,34.42h30.75s6.04-6.4,6.67-8.14l1.58,8.14h12.68l-4.61-30.92ZM505.62,640.37v-.87l12.15-16.43,2.46,17.3h-14.61Z"/>
    <path class="cls-14" d="M584.87,611.31h-30.08c-6.41,0-18.13,8.08-18.13,20.67,0,6.81,3.24,18.07,22.01,18.07h7.56s3.92-2.68,8.35-9.76h-16.86s-7.72-1.07-7.72-9.18c0-5.86,5.15-9.94,8-9.94h18.29s7.52-7.69,8.59-9.86Z"/>
    <path class="cls-14" d="M611.35,611.31h-11.09c-6.27,0-21.84,7.63-21.84,24.39,0,12.32,10.01,14.35,15.79,14.35h10.85c2.61,0,22.63-3.05,22.63-26.01,0-9.98-8.47-12.73-16.34-12.73ZM603.05,640.31h-4.99c-.47,0-6.13-1.27-6.13-8.16s8.39-11,10.4-11h6.06c2.81,0,5.47,1.11,5.47,6.81,0,8.82-10.81,12.35-10.81,12.35Z"/>
  </g>
  <g id="PLOMBERIE">
    <path class="cls-2" d="M417.37,551.64h-33.17l-13.71,38.74h13.63l5.08-14.1h19.97c6.73,0,15.08-5.68,15.08-13.46,0,0,.48-11.19-6.88-11.19ZM408.98,566.49h-11.6l-6.85,6.06,3.76-11.04h15.01s1.46,1.23,1.46,2.02-1.78,2.97-1.78,2.97Z"/>
    <path class="cls-2" d="M432.67,551.64l-13.75,38.74h31.41s3.92-3.55,8.45-9.85h-22.88l10.41-28.9h-13.64Z"/>
    <path class="cls-2" d="M495.47,551.64h-11.09c-6.27,0-21.84,7.63-21.84,24.39,0,12.32,10.01,14.35,15.79,14.35h10.85c2.61,0,22.63-3.05,22.63-26.01,0-9.98-8.47-12.73-16.34-12.73ZM487.18,580.64h-4.99c-.47,0-6.13-1.27-6.13-8.16s8.39-11,10.4-11h6.06c2.81,0,5.47,1.11,5.47,6.81,0,8.82-10.81,12.35-10.81,12.35Z"/>
    <polygon class="cls-2" points="521.95 551.57 508.15 590.38 521.83 590.38 529.64 568.39 533.64 590.38 538.45 590.38 557.99 568.45 550.31 590.38 563.88 590.38 577.78 551.57 560.48 551.57 542.96 571.2 539.26 551.57 521.95 551.57"/>
    <path class="cls-3" d="M621.95,562.24c0-5.9-1.62-10.67-6.76-10.67h-33.25l-13.85,38.81h34.04s10.01-.04,12.82-5.94c2.82-5.9,3.33-7.09,3.33-8.71,0-2.33-2.22-4.35-2.22-4.35,0,0,5.9-3.25,5.9-9.14ZM600.04,580.45h-14.76l1.93-5.08h16.5c.12,3.83-3.68,5.08-3.68,5.08ZM606.57,566.44h-11.56l-6.96,6.23,3.98-11.31h14.82l1.61,2.07-1.88,3.01Z"/>
    <path class="cls-2" d="M631.31,551.57l-13.78,38.81h35.97s5.7-4.4,8.58-9.95h-27.49l1.63-4.57h14.34l10.05-9.66h-16.45l-6.83,6.71,4.13-11.61h22.24s4.72-2.63,8.34-9.73h-40.73Z"/>
    <path class="cls-2" d="M769.96,551.66l-13.78,38.81h35.97s5.7-4.4,8.58-9.95h-27.49l1.63-4.57h14.34l10.05-9.66h-16.45l-6.83,6.71,4.13-11.61h22.24s4.72-2.63,8.34-9.73h-40.73Z"/>
    <path class="cls-2" d="M715.91,563.28c0-11.58-6.29-11.71-7.36-11.71h-32.39l-13.89,38.81h13.69l4.69-13.37.93-.68,14.92,14.06h15.16l-14.12-14.86s18.37-.66,18.37-12.24ZM700.42,566.33h-11.8l-6.41,6.54,4.08-11.58h14.59c.45,0,1.35.22,1.35,1.96,0,2.75-1.8,3.09-1.8,3.09Z"/>
    <path class="cls-2" d="M766.27,551.57s-4.71,7.78-8.42,9.77h-8.52l-6.92,19.12h13.6s-4.16,7.21-8.49,9.92h-35.72s1.52-3.64,8.29-9.96h8.73l6.8-19.08h-13.77s4.49-6.41,8.63-9.77h35.8Z"/>
  </g>
  <g id="_ÉLECTRICITÉ" data-name="ÉLECTRICITÉ">
    <path class="cls-9" d="M396.04,491.78l-13.75,38.81h31.41s3.92-3.56,8.45-9.86h-22.88l10.41-28.95h-13.64Z"/>
    <path class="cls-9" d="M522.37,491.85h-30.08c-6.41,0-18.13,8.08-18.13,20.67,0,6.81,3.24,18.07,22.01,18.07h7.56s3.92-2.68,8.35-9.76h-16.86s-7.72-1.07-7.72-9.18c0-5.86,5.15-9.94,8-9.94h18.29s7.52-7.69,8.59-9.86Z"/>
    <path class="cls-9" d="M703.88,491.85h-30.08c-6.41,0-18.13,8.08-18.13,20.67,0,6.81,3.24,18.07,22.01,18.07h7.56s3.92-2.68,8.35-9.76h-16.86s-7.72-1.07-7.72-9.18c0-5.86,5.15-9.94,8-9.94h18.29s7.52-7.69,8.59-9.86Z"/>
    <path class="cls-9" d="M351.19,491.78l-13.78,38.81h35.97s5.7-4.4,8.58-9.95h-27.49l1.63-4.57h14.34l10.05-9.66h-16.45l-6.83,6.71,4.13-11.61h22.24s4.72-2.63,8.34-9.73h-40.73Z"/>
    <path class="cls-9" d="M436.2,491.78l-13.78,38.81h35.97s5.7-4.4,8.58-9.95h-27.49l1.63-4.57h14.34l10.05-9.66h-16.45l-6.83,6.71,4.13-11.61h22.24s4.72-2.63,8.34-9.73h-40.73Z"/>
    <path class="cls-9" d="M792.41,491.78l-13.78,38.81h35.97s5.7-4.4,8.58-9.95h-27.49l1.63-4.57h14.34l10.05-9.66h-16.45l-6.83,6.71,4.13-11.61h22.24s4.72-2.63,8.34-9.73h-40.73Z"/>
    <path class="cls-9" d="M608.34,503.52c0-11.58-6.29-11.71-7.36-11.71h-32.39l-13.89,38.81h13.69l4.69-13.37.93-.68,14.92,14.06h15.16l-14.12-14.86s18.37-.66,18.37-12.24ZM592.86,506.57h-11.8l-6.41,6.54,4.08-11.58h14.59c.45,0,1.35.22,1.35,1.96,0,2.75-1.8,3.09-1.8,3.09Z"/>
    <path class="cls-9" d="M658.64,491.78s-4.71,7.78-8.42,9.77h-8.52l-6.92,19.12h13.6s-4.16,7.21-8.49,9.92h-35.72s1.52-3.64,8.29-9.96h8.73l6.8-19.08h-13.77s4.49-6.41,8.63-9.77h35.8Z"/>
    <path class="cls-9" d="M746.03,491.78s-4.71,7.78-8.42,9.77h-8.52l-6.92,19.12h13.6s-4.16,7.21-8.49,9.92h-35.72s1.52-3.64,8.29-9.96h8.73l6.8-19.08h-13.77s4.49-6.41,8.63-9.77h35.8Z"/>
    <path class="cls-9" d="M528.76,491.85s-4.59,3.94-8.31,9.56h13.62l-10.37,29.19h13.66l10.49-29.19h8.79s4.04-2.92,8.11-9.56h-35.98Z"/>
    <path class="cls-9" d="M752.73,491.85s-4.59,3.94-8.31,9.56h13.62l-10.37,29.19h13.66l10.49-29.19h8.79s4.04-2.92,8.11-9.56h-35.98Z"/>
  </g>
  <g id="BM2R">
    <g>
      <path class="cls-4" d="M214.6,409.75l-6.39,12.72h79.58s-1.12-12.72-9.3-12.72h-63.89Z"/>
      <path class="cls-14" d="M218.48,408.83l-6.44,12.57h79.57s0-12.42-13.2-12.42l-59.94-.15Z"/>
      <path class="cls-19" d="M286.57,427.54h-25.52l-1.34,1.25h-21.09l-12.66,7.82,4.68-9.4h-25.12l-16.35,32.16h65.6c19.35,0,25.91-14.62,25.91-18.15s-3.74-6.03-3.74-6.03c7.11-2.66,9.64-7.66,9.64-7.66ZM247.78,446.72h-27.13l3.45-6.39h30.15c0,5.45-6.47,6.39-6.47,6.39Z"/>
      <path class="cls-14" d="M290.4,426.69h-25.52l-1.34,1.25h-21.09l-12.66,7.82,4.68-9.4h-25.12l-16.35,32.16h65.6c19.35,0,25.91-14.62,25.91-18.15s-3.74-6.03-3.74-6.03c7.11-2.66,9.64-7.66,9.64-7.66ZM251.61,445.87h-27.13l3.45-6.39h30.15c0,5.45-6.47,6.39-6.47,6.39Z"/>
    </g>
    <g>
      <polygon class="cls-4" points="304.87 409.75 298.38 422.47 339.55 422.47 336.28 409.75 304.87 409.75"/>
      <polygon class="cls-14" points="308.66 408.98 302.17 421.4 343.33 421.4 340.06 408.98 308.66 408.98"/>
      <polygon class="cls-4" points="375.55 409.75 359.65 422.47 400.57 422.47 405.21 409.75 375.55 409.75"/>
      <polygon class="cls-14" points="379.29 408.98 363.41 421.4 404.27 421.4 410.73 408.98 379.29 408.98"/>
      <polygon class="cls-19" points="295.96 427.22 279.65 459.38 304.69 459.38 318.87 431.46 325.81 459.38 335.4 459.38 370.65 431.67 356.66 459.38 381.72 459.38 398.04 427.22 352.83 427.22 343.14 434.87 341.06 427.22 295.96 427.22"/>
      <polygon class="cls-14" points="299.43 426.72 283.11 458.53 308.16 458.53 322.33 430.91 329.28 458.53 338.87 458.53 374.12 431.12 360.13 458.53 385.18 458.53 401.51 426.72 356.29 426.72 346.61 434.29 344.53 426.72 299.43 426.72"/>
    </g>
    <g>
      <path class="cls-4" d="M408.28,422.47s7.1-7.08,16.19-12.72h59.71s8.4-.13,3.44,12.72h-79.35Z"/>
      <path class="cls-14" d="M412.25,421.4s3.54-4.39,15.52-12.42h56.51s8.22-.15,8.22,7.94c0,2.24-.9,4.48-.9,4.48h-79.35Z"/>
      <path class="cls-19" d="M461.32,428.37h-4.17s-2.97,1.29-4.33,1.29-21.71.29-26.83.29-33.71,10.33-33.71,24.28c0,5.15,4.39,5.15,6.5,5.15h61.48l8.35-12.25h-45.59v-5.13h29.99s5.12-.27,11.11-2.64-2.8-10.99-2.8-10.99Z"/>
      <path class="cls-14" d="M487.64,426.72s-15.57,14.41-32.17,14.41h-25.12s-2.42-.19-4.07,1.49c-1.65,1.68-2.91,3.29-2.91,3.62s.45.58,1.39.58h53.13s-7.98,7.24-13.92,11.71h-62.01s-5.86.39-5.86-5.63c0-10.27,19.8-24.07,36.68-24.07h22.65s3.08.18,7.02-2.11h25.19Z"/>
    </g>
    <g>
      <path class="cls-22" d="M500.94,409.75l-6.44,12.72h78.4s-1.94-12.72-8.72-12.72h-63.24Z"/>
      <path class="cls-14" d="M504.53,408.98l-6.44,12.42h78.4s-1.94-12.42-8.72-12.42h-63.24Z"/>
      <path class="cls-19" d="M491.96,427.22l-16.4,32.16h25.02l8.92-17.17,25.7,17.17h28.11l-23.05-18.39s8.98,1.57,19.74-2.82c10.76-4.39-9.92-9.62-9.92-9.62h-3.32l-.73.75-20.11.52h-2.99l-7.47,5.38v-7.98h-23.51Z"/>
      <path class="cls-14" d="M495.49,426.72l-16.37,31.81h25.14l8.17-15.9,1.49-.85,25.13,16.75h27.89l-23.84-17.63s30.07.3,33.39-14.18h-25.47s-.55,2.28-3.91,2.28h-20.54l-11.33,8.14,5.2-10.41h-24.95Z"/>
    </g>
  </g>
  <polygon class="cls-9" points="382.7 482.37 375.58 489.22 364.05 489.25 371.05 482.37 382.7 482.37"/>
  <polygon class="cls-9" points="468.1 482.37 460.98 489.22 449.45 489.25 456.45 482.37 468.1 482.37"/>
</svg>